# xmcd
#
# Track frame offsets:
#	150
#	1231
#	17900
#	44667
#	67018
#	90635
#	115592
#	131332
#	157015
#	172732
#	196591
#
# Disc length: 2817 seconds
#
# Revision: 0
# Processed by: cddbd v1.5.2PL0 Copyright (c) Steve Scherf et al.
# Submitted via: EasyCDDAExtractor 16.0.6.1
#
DISCID=820aff0b
DTITLE=Lewis Carroll - Alice im Wunderland
DYEAR=1900
DGENRE=
TTITLE0=Alice1
TTITLE1=Alice1
TTITLE2=Alice1
TTITLE3=Alice1
TTITLE4=Alice1
TTITLE5=Alice1
TTITLE6=Alice1
TTITLE7=Alice1
TTITLE8=Alice1
TTITLE9=Alice1
TTITLE10=Alice1
EXTD=
EXTT0=
EXTT1=
EXTT2=
EXTT3=
EXTT4=
EXTT5=
EXTT6=
EXTT7=
EXTT8=
EXTT9=
EXTT10=
PLAYORDER=
